<?xml version="1.0" standalone="no"?>
<!DOCTYPE svg PUBLIC "-//W3C//DTD SVG 20010904//EN"
 "http://www.w3.org/TR/2001/REC-SVG-20010904/DTD/svg10.dtd">
<svg version="1.0" xmlns="http://www.w3.org/2000/svg"
 width="32.000000pt" height="32.000000pt" viewBox="0 0 32.000000 32.000000"
 preserveAspectRatio="xMidYMid meet">

<g transform="translate(0.000000,32.000000) scale(0.100000,-0.100000)"
fill="#000000" stroke="none">
<path d="M30 282 c0 -14 249 -256 256 -249 4 4 -1 16 -11 27 -17 19 -16 20 9
50 35 43 33 66 -12 110 -44 44 -96 58 -154 43 -32 -9 -40 -7 -54 8 -18 20 -34
25 -34 11z m177 -54 c26 -24 31 -69 9 -87 -17 -15 -30 1 -30 39 -1 20 -6 25
-26 26 -38 0 -54 13 -39 30 17 21 60 17 86 -8z"/>
<path d="M26 198 c-9 -12 -16 -30 -16 -39 0 -26 49 -80 87 -95 34 -15 95 -19
106 -7 10 10 -33 53 -53 53 -20 0 -60 41 -60 62 0 14 -30 48 -43 48 -3 0 -13
-10 -21 -22z"/>
</g>
</svg>
