<?xml version="1.0" encoding="iso-8859-1"?>
<!-- Uploaded to: SVG Repo, www.svgrepo.com, Generator: SVG Repo Mixer Tools -->
<svg version="1.1" id="Layer_1" xmlns="http://www.w3.org/2000/svg" xmlns:xlink="http://www.w3.org/1999/xlink" 
	 viewBox="0 0 512 512" xml:space="preserve">
<path style="fill:#FFC674;" d="M129.914,201.856c-65.057,0-117.822-16.349-118.1-36.549h-0.007v181.389h0.006
	c-0.001,0.053-0.006,0.106-0.006,0.159c0,20.273,52.877,36.708,118.106,36.708s118.106-16.435,118.106-36.708
	c0-0.053-0.006-0.106-0.007-0.159h0.007V165.307h-0.006C247.737,185.506,194.97,201.856,129.914,201.856z"/>
<ellipse style="fill:#FF9732;" cx="129.918" cy="165.152" rx="118.11" ry="36.709"/>
<rect x="129.918" y="201.861" style="fill:#FFC674;" width="370.283" height="181.705"/>
<g>
	<rect x="174.161" y="271.868" style="fill:#FF738D;" width="41.917" height="111.687"/>
	<rect x="294.739" y="271.868" style="fill:#FF738D;" width="41.917" height="111.687"/>
	<rect x="415.329" y="271.868" style="fill:#FF738D;" width="41.917" height="111.687"/>
</g>
<path d="M255.481,308.568c-3.105,0-6.152-1.263-8.348-3.46c-0.543-0.543-1.039-1.145-1.464-1.795
	c-0.425-0.638-0.791-1.322-1.086-2.031c-0.295-0.72-0.52-1.464-0.673-2.22s-0.236-1.535-0.236-2.302c0-3.105,1.263-6.152,3.46-8.348
	c2.739-2.739,6.825-4.003,10.662-3.223c0.744,0.154,1.489,0.378,2.208,0.673c0.71,0.295,1.393,0.661,2.031,1.086
	c0.651,0.425,1.253,0.921,1.796,1.464c2.196,2.196,3.46,5.243,3.46,8.348c0,0.767-0.071,1.547-0.223,2.302s-0.378,1.5-0.673,2.22
	c-0.295,0.708-0.661,1.393-1.086,2.031c-0.437,0.649-0.933,1.252-1.476,1.795c-0.543,0.543-1.145,1.039-1.796,1.464
	c-0.638,0.437-1.321,0.791-2.031,1.086c-0.719,0.295-1.464,0.531-2.208,0.673C257.027,308.484,256.247,308.568,255.481,308.568z"/>
<path d="M67.823,296.761c-0.779,0-1.547-0.083-2.314-0.236c-0.756-0.142-1.5-0.378-2.208-0.673
	c-0.708-0.295-1.393-0.661-2.043-1.086c-0.638-0.425-1.24-0.921-1.795-1.464c-0.543-0.543-1.039-1.145-1.464-1.795
	c-0.425-0.638-0.791-1.322-1.086-2.031c-0.295-0.72-0.52-1.464-0.673-2.22s-0.224-1.535-0.224-2.302
	c0-3.105,1.252-6.152,3.448-8.348c0.543-0.543,1.157-1.039,1.795-1.464c0.649-0.425,1.334-0.791,2.043-1.086
	c0.708-0.295,1.452-0.52,2.208-0.673c1.523-0.307,3.094-0.307,4.617,0c0.756,0.154,1.5,0.378,2.208,0.673
	c0.708,0.295,1.393,0.661,2.043,1.086c0.638,0.425,1.252,0.921,1.795,1.464c2.196,2.196,3.448,5.243,3.448,8.348
	c0,0.767-0.071,1.547-0.224,2.302c-0.153,0.756-0.378,1.5-0.673,2.22c-0.295,0.708-0.661,1.393-1.086,2.031
	c-0.425,0.649-0.921,1.252-1.464,1.795s-1.157,1.039-1.795,1.464c-0.649,0.425-1.334,0.791-2.043,1.086
	c-0.708,0.295-1.452,0.531-2.208,0.673C69.358,296.677,68.591,296.761,67.823,296.761z"/>
<path d="M500.193,190.048H259.827v-24.743c0-0.021-0.004-0.04-0.004-0.061c0-0.033,0.004-0.065,0.004-0.098
	c0-33.334-67.343-48.516-129.913-48.516S0,131.814,0,165.147c0,0.033,0.002,0.065,0.004,0.098c0,0.02-0.004,0.04-0.004,0.06v181.389
	c0,0.028,0,0.057,0,0.086c0,0.025,0,0.05,0,0.073c0,33.334,67.343,48.516,129.913,48.516h370.279c6.52,0,11.807-5.286,11.807-11.807
	V201.856C512,195.334,506.714,190.048,500.193,190.048z M204.268,371.756h-18.302v-88.074h18.302V371.756z M51.326,150.031
	c21.053-6.311,48.962-9.786,78.588-9.786s57.537,3.475,78.588,9.786c21.986,6.59,27.501,13.675,27.71,15.115
	c-0.209,1.439-5.727,8.526-27.711,15.116c-21.053,6.31-48.962,9.785-78.587,9.785s-57.534-3.475-78.586-9.785
	c-22.06-6.612-27.539-13.724-27.713-15.102C23.789,163.755,29.266,156.645,51.326,150.031z M23.62,346.889
	c0.004-0.2,0.001-0.399-0.005-0.597V194.636c22.648,11.653,58.606,17.753,94.491,18.846v158.082
	c-13.523-0.429-26.516-1.593-38.481-3.424v-47.765c0-6.521-5.286-11.807-11.807-11.807s-11.807,5.286-11.807,11.807v42.914
	c-1.593-0.427-3.162-0.864-4.686-1.321C29.447,355.411,23.879,348.363,23.62,346.889z M306.551,371.756v-88.074h18.302v88.074
	H306.551z M427.135,371.756v-88.074h18.302v88.074H427.135z M488.385,371.756h-19.334v-99.882c0-6.521-5.287-11.807-11.807-11.807
	h-41.917c-6.52,0-11.807,5.286-11.807,11.807v99.882h-15.793v-39.573c0-6.521-5.287-11.807-11.807-11.807
	s-11.807,5.286-11.807,11.807v39.573h-15.645v-99.882c0-6.521-5.287-11.807-11.807-11.807h-41.917
	c-6.52,0-11.807,5.286-11.807,11.807v99.882h-15.645v-39.573c0-6.521-5.287-11.807-11.807-11.807
	c-6.521,0-11.807,5.286-11.807,11.807v39.573h-15.793v-99.882c0-6.521-5.286-11.807-11.807-11.807h-41.917
	c-6.521,0-11.807,5.286-11.807,11.807v99.882h-20.631V213.663h346.664V371.756z"/>
<path d="M375.916,308.568c-0.766,0-1.547-0.083-2.302-0.236c-0.756-0.142-1.5-0.378-2.207-0.673
	c-0.72-0.295-1.405-0.661-2.043-1.086c-0.649-0.425-1.252-0.921-1.795-1.464c-0.543-0.543-1.04-1.145-1.464-1.795
	c-0.425-0.638-0.791-1.322-1.086-2.031c-0.295-0.72-0.52-1.464-0.673-2.22s-0.236-1.535-0.236-2.302s0.083-1.547,0.236-2.302
	s0.378-1.5,0.673-2.208c0.295-0.72,0.661-1.405,1.086-2.043c0.424-0.649,0.921-1.252,1.464-1.795
	c0.543-0.543,1.145-1.039,1.795-1.464c0.638-0.425,1.322-0.791,2.043-1.086c0.708-0.295,1.451-0.531,2.207-0.673
	c1.523-0.307,3.094-0.307,4.617,0c0.744,0.142,1.489,0.378,2.208,0.673c0.71,0.295,1.393,0.661,2.031,1.086
	c0.651,0.425,1.253,0.921,1.796,1.464c0.543,0.543,1.039,1.145,1.476,1.795c0.425,0.638,0.791,1.322,1.086,2.043
	c0.295,0.708,0.52,1.452,0.673,2.208s0.223,1.535,0.223,2.302s-0.071,1.547-0.223,2.302s-0.378,1.5-0.673,2.22
	c-0.295,0.708-0.661,1.393-1.086,2.031c-0.437,0.649-0.933,1.252-1.476,1.795c-0.543,0.543-1.145,1.039-1.796,1.464
	c-0.638,0.425-1.321,0.791-2.031,1.086c-0.719,0.295-1.464,0.531-2.208,0.673C377.464,308.484,376.684,308.568,375.916,308.568z"/>
</svg>